Patient4_TMGait_0pt5_02_left_15_GRF.mot
version=1
nRows=77
nColumns=19
inDegrees=no
endheader
time	F1x	F1y	F1z	M1x	M1y	M1z	F2x	F2y	F2z	M2x	M2y	M2z	EC1x	EC1y	EC1z	EC2x	EC2y	EC2z
18.93	-1.1047	-14.3056	11.4534	0.65024	-7.9674	-16.356	-26.8151	754.9712	-84.4326	259.4554	86.4187	654.1472	-0.0592	0.0182	-0.0073	-0.0462	0.0165	0.9585
18.9432	-0.86961	-9.0489	7.7519	0.18333	-5.4631	-10.4745	-27.9191	751.3809	-77.4834	257.2537	78.9433	648.6269	-0.0592	0.0182	-0.0073	-0.0462	0.0165	0.9585
18.9564	-0.63964	-4.5612	4.6187	-0.21678	-3.3286	-5.4519	-28.1741	749.2473	-71.0515	255.6982	71.7613	643.473	-0.0592	0.0182	-0.0073	-0.0462	0.0165	0.9585
18.9696	-0.44952	-1.1033	2.2301	-0.53134	-1.6941	-1.5853	-27.5109	749.056	-65.5981	255.0477	65.3541	639.1396	-0.0592	0.0182	-0.0073	-0.0462	0.0165	0.9585
18.9829	-0.31567	1.3285	0.57808	-0.76201	-0.56089	1.1332	-26.0011	750.881	-61.2707	255.3523	59.8947	635.782	-0.0592	0.0182	-0.0073	-0.0462	0.0165	0.9585
18.9961	-0.23617	2.8688	-0.44285	-0.91891	0.14015	2.8532	-23.7299	754.4003	-58.0029	256.4844	55.3309	633.2276	-0.0592	0.0182	-0.0073	-0.0462	0.0165	0.9585
19.0093	-0.21742	3.712	-0.9836	-1.014	0.50578	3.7982	-20.7957	758.9662	-55.6285	258.1822	51.5078	631.0504	-0.0592	0.0182	-0.0073	-0.0462	0.0165	0.9585
19.0225	-0.25024	4.03	-1.1886	-1.0499	0.63088	4.1643	-17.2538	763.6851	-53.9311	260.0962	48.2067	628.6123	-0.0592	0.0182	-0.0073	-0.0462	0.0165	0.9585
19.0357	-0.33268	3.9518	-1.1877	-1.0208	0.60012	4.1108	-13.1444	767.6063	-52.7049	261.8561	45.2133	625.2335	-0.0592	0.0182	-0.0073	-0.0462	0.0165	0.9585
19.0489	-0.46021	3.546	-1.0695	-0.91216	0.47102	3.723	-8.5053	769.8887	-51.775	263.1312	42.347	620.3315	-0.0592	0.0182	-0.0073	-0.0462	0.0165	0.9585
19.0621	-0.62354	2.8378	-0.90162	-0.70332	0.29182	3.0342	-3.4165	769.9328	-51.0147	263.6755	39.496	613.5392	-0.0592	0.0182	-0.0073	-0.0462	0.0165	0.9585
19.0754	-0.80559	1.8209	-0.72337	-0.3712	0.096366	2.0442	1.9787	767.4683	-50.3535	263.3588	36.6314	604.7741	-0.0592	0.0182	-0.0073	-0.0462	0.0165	0.9585
19.0886	-0.96325	0.47576	-0.56261	0.10264	-0.076312	0.73695	7.4914	762.6041	-49.7659	262.1849	33.7889	594.2748	-0.0592	0.0182	-0.0073	-0.0462	0.0165	0.9585
19.1018	-1.045	-1.1906	-0.43481	0.7195	-0.18876	-0.87172	12.8901	755.8174	-49.2609	260.2874	31.0504	582.5817	-0.0592	0.0182	-0.0073	-0.0462	0.0165	0.9585
19.115	-0.95701	-3.0984	-0.34848	1.4466	-0.19779	-2.7035	17.9402	747.7898	-48.8755	257.8741	28.528	570.3669	-0.0592	0.0182	-0.0073	-0.0462	0.0165	0.9585
19.1282	-0.58775	-5.0241	-0.31655	2.1927	-0.045701	-4.5537	22.4202	739.3146	-48.6616	255.1933	26.3441	558.363	-0.0592	0.0182	-0.0073	-0.0462	0.0165	0.9585
19.1414	0.19841	-6.5493	-0.35177	2.7869	0.33196	-6.0463	26.1993	731.1915	-48.665	252.5037	24.5871	547.2461	-0.0592	0.0182	-0.0073	-0.0462	0.0165	0.9585
19.1546	1.5342	-6.9877	-0.47275	2.9508	1.0059	-6.5487	29.2224	724.138	-48.9218	250.0428	23.3067	537.5865	-0.0592	0.0182	-0.0073	-0.0462	0.0165	0.9585
19.1679	3.5318	-5.3224	-0.68617	2.2741	2.0271	-5.1134	31.5193	718.6258	-49.4394	247.9732	22.4967	529.7128	-0.0592	0.0182	-0.0073	-0.0462	0.0165	0.9585
19.1811	6.2431	-0.20024	-0.99995	0.2102	3.4189	-0.48444	33.1724	714.7695	-50.1994	246.3423	22.1147	523.6532	-0.0592	0.0182	-0.0073	-0.0462	0.0165	0.9585
19.1943	9.5644	10.0073	-1.4069	-3.8943	5.1279	8.8681	34.2752	712.2764	-51.1417	245.0597	22.0857	519.1324	-0.0592	0.0182	-0.0073	-0.0462	0.0165	0.9585
19.2075	13.1567	26.9877	-1.8838	-10.7193	6.9861	24.5388	34.9206	710.4127	-52.1874	243.8855	22.3271	515.5557	-0.0592	0.0182	-0.0073	-0.0462	0.0165	0.9585
19.2207	16.3034	52.1059	-2.3685	-20.8143	8.6406	47.8542	35.145	708.0509	-53.2202	242.4463	22.7446	512.0719	-0.0592	0.0182	-0.0073	-0.0462	0.0165	0.9585
19.2339	17.8751	85.8344	-2.7411	-34.3672	9.5215	79.3243	34.9652	703.7836	-54.0813	240.2782	23.2229	507.6304	-0.0592	0.0182	-0.0073	-0.0462	0.0165	0.9585
19.2471	16.5211	127.1501	-2.8415	-50.9594	8.9418	118.0776	34.374	696.1568	-54.5718	236.9109	23.6264	501.1535	-0.0592	0.0182	-0.0073	-0.0462	0.0165	0.9585
19.2604	11.6706	173.3627	-2.4309	-69.49	6.4535	161.6757	33.3771	683.9531	-54.4927	231.9664	23.8177	491.7238	-0.0592	0.0182	-0.0073	-0.0462	0.0165	0.9585
19.2736	4.4867	220.0527	-1.1829	-88.1475	2.2158	205.9525	32.023	666.4353	-53.6853	225.2391	23.6732	478.7528	-0.0592	0.0182	-0.0073	-0.0462	0.0165	0.9585
19.2868	-3.0553	261.0957	1.2944	-104.4668	-3.329	244.9521	30.4071	643.4049	-52.0921	216.7098	23.1239	462.0134	-0.0592	0.0182	-0.0073	-0.0462	0.0165	0.9585
19.3	-9.3915	291.9295	4.7218	-116.636	-9.2519	274.1558	28.6753	615.2448	-49.7748	206.5495	22.1677	441.6697	-0.0592	0.0182	-0.0073	-0.0462	0.0165	0.9585
19.3132	-14.0774	312.1941	8.5332	-124.5409	-14.8053	293.1351	26.9981	582.9021	-46.9514	195.1002	20.8957	418.3079	-0.0592	0.0182	-0.0073	-0.0462	0.0165	0.9585
19.3264	-17.3528	325.1784	12.226	-129.5267	-19.599	304.9827	25.5633	547.5848	-43.9138	182.774	19.4411	392.7251	-0.0592	0.0182	-0.0073	-0.0462	0.0165	0.9585
19.3396	-19.6778	335.3916	15.505	-133.4237	-23.5372	313.93	24.4973	510.4074	-40.8109	169.9463	17.8562	365.6908	-0.0592	0.0182	-0.0073	-0.0462	0.0165	0.9585
19.3529	-21.3853	346.8611	18.2408	-137.8648	-26.6433	323.6849	23.8391	472.1844	-37.6021	156.8914	16.0974	337.8011	-0.0592	0.0182	-0.0073	-0.0462	0.0165	0.9585
19.3661	-22.6218	362.4977	20.5307	-144.0103	-29.0825	336.8639	23.5015	433.3691	-34.1547	143.7582	14.0992	309.4334	-0.0592	0.0182	-0.0073	-0.0462	0.0165	0.9585
19.3793	-23.4017	383.9683	22.5503	-152.5036	-31.0387	354.9453	23.2838	394.0952	-30.4077	130.5801	11.8777	280.7583	-0.0592	0.0182	-0.0073	-0.0462	0.0165	0.9585
19.3925	-23.6787	411.6785	24.6212	-163.4668	-32.798	378.2812	22.9252	354.2982	-26.423	117.3157	9.5437	251.7983	-0.0592	0.0182	-0.0073	-0.0462	0.0165	0.9585
19.4057	-23.4743	444.9034	27.0999	-176.5595	-34.6905	406.1905	22.1383	313.9423	-22.3805	103.9243	7.2965	222.5981	-0.0592	0.0182	-0.0073	-0.0462	0.0165	0.9585
19.4189	-22.9349	482.1714	30.335	-191.1547	-37.0795	437.3267	20.69	273.1812	-18.4965	90.4281	5.3496	193.3015	-0.0592	0.0182	-0.0073	-0.0462	0.0165	0.9585
19.4321	-22.2044	521.9659	34.3961	-206.6403	-40.0714	470.3029	18.4492	232.5515	-14.9602	76.9817	3.8724	164.3021	-0.0592	0.0182	-0.0073	-0.0462	0.0165	0.9585
19.4454	-21.361	563.1662	39.1032	-222.5862	-43.5309	504.1008	15.4713	192.981	-11.8987	63.8776	2.932	136.2257	-0.0592	0.0182	-0.0073	-0.0462	0.0165	0.9585
19.4586	-20.4181	604.8888	44.0497	-238.6809	-47.1005	537.9	11.9741	155.6346	-9.3703	51.4965	2.495	109.8484	-0.0592	0.0182	-0.0073	-0.0462	0.0165	0.9585
19.4718	-19.3638	646.2139	48.844	-254.6009	-50.4346	570.8885	8.2939	121.6408	-7.3586	40.2159	2.4356	85.9149	-0.0592	0.0182	-0.0073	-0.0462	0.0165	0.9585
19.485	-18.1675	686.0108	53.1897	-269.9252	-53.2638	602.0951	4.8072	91.8327	-5.7831	30.3206	2.5741	64.9603	-0.0592	0.0182	-0.0073	-0.0462	0.0165	0.9585
19.4982	-16.8253	722.9172	56.9995	-284.1226	-55.5212	630.4074	1.7898	66.6274	-4.5346	21.9566	2.7488	47.2542	-0.0592	0.0182	-0.0073	-0.0462	0.0165	0.9585
19.5114	-15.3742	755.5422	60.2728	-296.6363	-57.2307	654.7135	-0.58289	46.045	-3.5074	15.1375	2.8383	32.7907	-0.0592	0.0182	-0.0073	-0.0462	0.0165	0.9585
19.5246	-13.8398	782.7463	63.08	-306.9962	-58.481	674.1417	-2.2306	29.8466	-2.6323	9.7863	2.7788	21.4061	-0.0592	0.0182	-0.0073	-0.0462	0.0165	0.9585
19.5379	-12.2615	803.7699	65.445	-314.8832	-59.3153	688.1793	-3.1319	17.623	-1.876	5.7664	2.5499	12.8136	-0.0592	0.0182	-0.0073	-0.0462	0.0165	0.9585
19.5511	-10.6826	818.2639	67.4138	-320.1431	-59.8033	696.6723	-3.3383	8.8783	-1.241	2.9088	2.1762	6.6577	-0.0592	0.0182	-0.0073	-0.0462	0.0165	0.9585
19.5643	-9.1691	826.2953	68.9901	-322.7924	-59.9794	699.7998	-3.0332	3.1132	-0.74532	1.0398	1.7302	2.5904	-0.0592	0.0182	-0.0073	-0.0462	0.0165	0.9585
19.5775	-7.7748	828.2776	70.1994	-322.9936	-59.8969	698.0133	-2.4828	-0.23664	-0.39416	-0.034327	1.2995	0.22322	-0.0592	0.0182	-0.0073	-0.0462	0.0165	0.9585
19.5907	-6.5152	824.9287	71.0411	-321.041	-59.5693	691.9703	-1.881	-1.8064	-0.16767	-0.52748	0.92811	-0.88006	-0.0592	0.0182	-0.0073	-0.0462	0.0165	0.9585
19.6039	-5.3699	817.273	71.5586	-317.3551	-59.0345	682.5385	-1.3297	-2.1916	-0.037929	-0.63861	0.62841	-1.1336	-0.0592	0.0182	-0.0073	-0.0462	0.0165	0.9585
19.6171	-4.2967	806.5432	71.7846	-312.4441	-58.304	670.711	-0.88059	-1.8713	0.027045	-0.52695	0.4001	-0.86696	-0.0592	0.0182	-0.0073	-0.0462	0.0165	0.9585
19.6304	-3.2403	794.0477	71.7977	-306.8454	-57.4235	657.5159	-0.54835	-1.2004	0.049459	-0.30673	0.23661	-0.33365	-0.0592	0.0182	-0.0073	-0.0462	0.0165	0.9585
19.6436	-2.1459	781.0361	71.6357	-301.0734	-56.401	643.9061	-0.32799	-0.41402	0.050733	-0.051443	0.12342	0.29193	-0.0592	0.0182	-0.0073	-0.0462	0.0165	0.9585
19.6568	-0.98258	768.5639	71.3527	-295.5652	-55.2633	630.6648	-0.20164	0.34395	0.039418	0.19467	0.055101	0.90171	-0.0592	0.0182	-0.0073	-0.0462	0.0165	0.9585
19.67	0.29186	757.4392	70.9574	-290.6578	-53.9952	618.3836	-0.14418	0.98824	0.024302	0.40608	0.022533	1.4236	-0.0592	0.0182	-0.0073	-0.0462	0.0165	0.9585
19.6832	1.7176	748.1872	70.4739	-286.5708	-52.5993	607.4416	-0.14459	1.4801	0.0041353	0.56975	0.026629	1.8192	-0.0592	0.0182	-0.0073	-0.0462	0.0165	0.9585
19.6964	3.3375	741.0633	69.9031	-283.4086	-51.0616	598.0109	-0.18119	1.7947	-0.019081	0.67604	0.062368	2.0535	-0.0592	0.0182	-0.0073	-0.0462	0.0165	0.9585
19.7096	5.1747	736.1046	69.2649	-281.1804	-49.3916	590.1078	-0.25127	1.9156	-0.045362	0.71539	0.12318	2.1131	-0.0592	0.0182	-0.0073	-0.0462	0.0165	0.9585
19.7229	7.2515	733.2061	68.5737	-279.8338	-47.5962	583.655	-0.34727	1.8129	-0.068277	0.67351	0.19145	1.9654	-0.0592	0.0182	-0.0073	-0.0462	0.0165	0.9585
19.7361	9.5809	732.1733	67.8563	-279.2785	-45.6954	578.515	-0.46453	1.4348	-0.088654	0.52923	0.26086	1.5594	-0.0592	0.0182	-0.0073	-0.0462	0.0165	0.9585
19.7493	12.1634	732.7578	67.1344	-279.3996	-43.7111	574.5149	-0.59569	0.71014	-0.096168	0.25618	0.31889	0.83394	-0.0592	0.0182	-0.0073	-0.0462	0.0165	0.9585
19.7625	14.9818	734.6619	66.4366	-280.0615	-41.677	571.4568	-0.71619	-0.44062	-0.086682	-0.17477	0.35772	-0.29124	-0.0592	0.0182	-0.0073	-0.0462	0.0165	0.9585
19.7757	18.0076	737.5255	65.7973	-281.103	-39.6313	569.1056	-0.79365	-2.0685	-0.0536	-0.78162	0.36125	-1.8647	-0.0592	0.0182	-0.0073	-0.0462	0.0165	0.9585
19.7889	21.2001	740.9035	65.2436	-282.3329	-37.609	567.1723	-0.77033	-4.1529	0.0089676	-1.5551	0.29874	-3.8707	-0.0592	0.0182	-0.0073	-0.0462	0.0165	0.9585
19.8021	24.5078	744.2627	64.8005	-283.5271	-35.6478	565.2972	-0.5731	-6.5432	0.10494	-2.438	0.13669	-6.1698	-0.0592	0.0182	-0.0073	-0.0462	0.0165	0.9585
19.8154	27.899	747.0154	64.4723	-284.4441	-33.7624	563.0781	-0.10185	-8.8865	0.24494	-3.2976	-0.17207	-8.4334	-0.0592	0.0182	-0.0073	-0.0462	0.0165	0.9585
19.8286	31.3365	748.5305	64.2576	-284.8302	-31.9603	560.0827	0.75356	-10.5325	0.4295	-3.8914	-0.66644	-10.0509	-0.0592	0.0182	-0.0073	-0.0462	0.0165	0.9585
19.8418	34.7927	748.1758	64.1468	-284.4372	-30.2453	555.8683	2.0895	-10.4486	0.65894	-3.8364	-1.3791	-10.0542	-0.0592	0.0182	-0.0073	-0.0462	0.0165	0.9585
19.855	38.2269	745.4025	64.1305	-283.0567	-28.628	550.0604	3.9695	-7.1775	0.90808	-2.5909	-2.3024	-7.0837	-0.0592	0.0182	-0.0073	-0.0462	0.0165	0.9585
19.8682	41.6086	739.8124	64.192	-280.544	-27.1137	542.3996	6.3587	1.1578	1.1318	0.54371	-3.3668	0.63227	-0.0592	0.0182	-0.0073	-0.0462	0.0165	0.9585
19.8814	44.8956	731.1507	64.2804	-276.8182	-25.6871	532.7304	9.0682	16.7181	1.2375	6.3717	-4.4012	15.154	-0.0592	0.0182	-0.0073	-0.0462	0.0165	0.9585
19.8946	48.008	719.1998	64.2908	-271.8234	-24.3132	520.9409	11.6593	41.6341	1.0914	15.6848	-5.1068	38.5386	-0.0592	0.0182	-0.0073	-0.0462	0.0165	0.9585
19.9079	50.8335	703.6315	64.041	-265.4711	-22.9106	506.8411	13.2776	77.4965	0.51819	29.0711	-4.9958	72.3477	-0.0592	0.0182	-0.0073	-0.0462	0.0165	0.9585
19.9211	53.2251	683.911	63.3135	-257.5996	-21.3881	490.0999	12.4939	124.664	-0.64056	46.6571	-3.3867	116.9959	-0.0592	0.0182	-0.0073	-0.0462	0.0165	0.9585
19.9343	55.0076	659.2835	61.8737	-247.9655	-19.6545	470.2216	8.0138	181.6841	-2.5628	67.8879	0.35646	171.2076	-0.0592	0.0182	-0.0073	-0.0462	0.0165	0.9585
